<svg width="217" height="246" viewBox="0 0 217 246" fill="none" xmlns="http://www.w3.org/2000/svg">
<path d="M61.557 120L63.8129 121.418C64.6036 121.916 65.1671 122.75 65.3671 123.72L65.9962 126.758C66.0126 126.845 65.9747 126.933 65.903 126.976C65.8313 127.018 65.7425 127.004 65.6843 126.942L63.2483 124.275C62.9946 123.996 62.6186 123.896 62.2749 124.015C61.507 124.284 60.666 124.12 60.0325 123.576L59 122.597L61.557 120Z" fill="#AA7536"/>
<path d="M59.3158 122L46.095 108.703L38 88.2139L45.4797 85L53.2389 104.292L62 119.516L59.3158 122Z" fill="#FF7BA8"/>
<path d="M7.73401 121L5 118.461L16.1658 104.514L25.6171 85L34 88.1141L23.1587 109.344L7.73401 121Z" fill="#FF7BA8"/>
<path d="M42 76L26 73.6127L27.8562 60.6352C28.1903 58.2929 29.4216 56.1823 31.279 54.768C33.1365 53.3536 35.4678 52.7514 37.7599 53.094L41.5422 53.7186L42 76Z" fill="#100532"/>
<path d="M24 131L27.2769 153.567L26.2829 181H28.9982L35.0521 154.144L35.4368 134.029H36.4645L39.9969 153.504L40.9152 181H43.6333L47 153.626L46.9747 131H24Z" fill="#AA7536"/>
<path d="M31.3948 182.217L28.7867 181H26V184H27.9769L28.7867 183.189L31.3948 184H34V182.808L31.3948 182.217Z" fill="#3C4DC4"/>
<path d="M46.3948 182.217L43.7896 181H41V184H42.9769L43.7896 183.189L46.3948 184H49V182.808L46.3948 182.217Z" fill="#3C4DC4"/>
<path d="M4.44982 118L2.19555 119.417C1.40441 119.916 0.840137 120.75 0.638006 121.719L0.00584207 124.752C-0.0150044 124.839 0.0212268 124.931 0.0939872 124.975C0.166748 125.019 0.257675 125.004 0.315199 124.939L2.75508 122.271C3.00835 121.994 3.38374 121.894 3.7262 122.014C4.4956 122.28 5.33639 122.116 5.9724 121.576L7 120.594L4.44982 118Z" fill="#AA7536"/>
<path d="M52 140H18L23.4439 109.194L24.2827 87.9094C24.4147 84.6078 27.0795 82.0003 30.3222 82H39.661C42.9037 82.0003 45.5685 84.6078 45.7005 87.9094L46.5393 109.194L52 140Z" fill="#FF7BA8"/>
<path d="M38.1708 73H34.632L32 82H41L38.1708 73Z" fill="#AA7536"/>
<path d="M33.3716 59.499L48.7436 61.7444L47.0753 73.1668C46.5665 76.6504 43.3302 79.0619 39.8468 78.5531L34.3122 77.7447C32.3625 77.4599 31.0129 75.6484 31.2976 73.6987L33.3716 59.499Z" fill="#AA7536"/>
<path d="M32.7455 68.8307C33.4371 68.5489 33.7694 67.7596 33.4875 67.0679C33.2057 66.3762 32.4165 66.044 31.7248 66.3259C31.0331 66.6077 30.7009 67.3969 30.9828 68.0886C31.2646 68.7803 32.0538 69.1126 32.7455 68.8307Z" fill="#AA7536"/>
<path d="M36.4985 87C34.0141 87 32 84.8989 32 82.3071V82H41V82.3071C41 83.5523 40.5256 84.7464 39.6814 85.6266C38.8371 86.5067 37.6921 87.0008 36.4985 87Z" fill="#AA7536"/>
<path d="M49.6741 66L38.3658 64.2794L37.7732 61.6498L36.5936 64.0108L32 63.3114L32.9357 56.6562L42.4547 54C47.2731 54.7325 50.6091 59.3911 49.9066 64.4063L49.6741 66Z" fill="#100532"/>
<path d="M60.4405 190.999H13.5595C12.3001 191.035 11.1206 190.376 10.4803 189.279C9.83991 188.181 9.83991 186.819 10.4803 185.721C11.1206 184.624 12.3001 183.965 13.5595 184.001H60.4405C61.6999 183.965 62.8794 184.624 63.5197 185.721C64.1601 186.819 64.1601 188.181 63.5197 189.279C62.8794 190.376 61.6999 191.035 60.4405 190.999Z" fill="white"/>
<path d="M22.1662 184L15.0079 244.398C14.9288 245.16 15.4491 245.853 16.1955 245.98C16.9419 246.107 17.6569 245.623 17.8276 244.877L31 184.496L22.1662 184Z" fill="white"/>
<path d="M51.8349 184L58.9889 244.374C59.0835 245.143 58.5625 245.852 57.8073 245.98C57.0521 246.108 56.3312 245.611 56.1726 244.853L43 184.496L51.8349 184Z" fill="white"/>
<path d="M122.55 199L121 198.887C122.564 177.084 126.029 158.538 131.3 143.769C135.536 131.893 140.941 122.427 147.374 115.595C158.433 103.844 168.575 103.983 169 104.002L168.958 105.563L168.98 104.783L168.961 105.563C168.862 105.563 158.97 105.464 148.378 116.8C138.525 127.338 126.049 150.157 122.55 199Z" fill="white"/>
<path d="M116.463 201L115 200.892C116.485 179.724 119.72 161.592 124.612 147L126 147.49C121.161 161.968 117.94 179.963 116.463 201Z" fill="#67C7BF"/>
<path d="M104.948 199L103.418 198.966C103.754 183.801 102.424 171.559 99.4669 162.58C97.1042 155.411 93.7059 150.301 89.3664 147.395C81.3648 142.036 72.7274 145.978 72.6413 146.029L72 144.613C72.3859 144.432 81.5036 140.262 90.2076 146.092C100.614 153.06 105.572 170.853 104.948 199Z" fill="white"/>
<path d="M115.785 138L114.234 137.849C114.234 137.75 115.141 127.923 113.215 114.321C111.435 101.801 106.837 83.392 95 66.9176L96.2625 66C108.297 82.7614 112.963 101.426 114.757 114.145C116.7 127.938 115.785 137.901 115.785 138Z" fill="white"/>
<path d="M119.823 111C120.151 107.857 118.434 103.505 118.204 100.274C117.932 95.8704 117.932 91.4542 118.204 87.0506C118.604 79.3493 119.315 71.6424 120.392 64.0032C121.315 66.5026 122.235 69.0039 123.153 71.5071C120.112 57.0658 125.376 41.1841 136.456 31.3743C134.499 36.1677 133.442 41.2774 133.338 46.4498C134.529 40.4258 138.211 35.1122 142.712 30.912C147.213 26.7118 152.531 23.4898 157.806 20.3045C161.267 18.2128 164.949 16.0564 169 16C167.926 16.0141 164.275 20.9923 163.317 22.0184C154.969 30.943 157.208 43.1771 155.876 54.2216C155.025 61.1814 151.998 64.9334 147.145 69.4437C148.738 70.9941 149.376 73.2069 148.449 75.3267C147.542 77.3958 145.663 78.8504 143.914 80.2795C135.009 87.4717 127.501 96.2215 121.759 106.098C120.863 107.617 120.007 109.238 119.823 111Z" fill="#67C7BF"/>
<path d="M112.099 105C110.674 103.545 114.827 87.9176 115.132 85.2897C115.904 78.6418 116.286 71.9256 115.75 65.2435C115.451 61.5081 108.991 29.5925 101.721 34.6602C100.494 35.5144 99.958 37.0432 99.4966 38.4696C101.545 32.1406 97.6706 25.8059 94.7737 20.4192C91.1446 13.6659 84.1429 0 84.1429 0C84.1429 0 86.8689 22.4235 85.9517 33.7293C83.6853 31.7837 82.0517 29.2062 81.2602 26.3269C79.3374 42.9965 88.3815 58.8689 98.2062 72.4722C97.1949 71.0743 94.4746 67.1083 92.6145 66.9176C88.9626 66.5418 90.4951 73.9185 91.0307 76.4496C91.8852 80.5465 93.9989 84.3644 96.5084 87.6784C100.918 93.5007 112.093 104.994 112.099 105Z" fill="white"/>
<path d="M129.305 154C128.377 144.618 129.574 135.144 132.804 126.302L134.7 127.471C135.281 113.147 142.22 98.9512 153.386 90.0837C153.386 92.0751 153.406 94.0296 153.501 96.0068C153.434 94.5843 161.357 90.1918 162.598 89.4066C172.754 83.0541 184.142 78.9997 195.986 77.5206C197.854 77.2959 201.359 77.7909 203 77C194.695 81.0255 185.436 84.2972 181.228 93.3183C177.117 102.138 174.544 109.585 166.225 115.244C156.015 122.188 148.193 129.77 140.469 139.508C136.679 144.282 132.958 149.112 129.305 154Z" fill="white"/>
<path d="M104.828 99C105.352 93.6386 104.673 88.2258 102.841 83.1731L101.764 83.8422C101.435 75.6517 97.4986 67.5386 91.164 62.4697C91.164 63.6013 91.1499 64.7242 91.0965 65.8557C91.1359 65.0372 86.6457 62.5301 85.9344 62.082C80.1697 58.4489 73.7044 56.131 66.9813 55.2872C65.9185 55.158 63.9306 55.4423 63 55C67.7179 57.2975 72.9784 59.1671 75.3711 64.325C77.7048 69.368 79.164 73.6241 83.8875 76.8578C89.6794 80.8296 94.119 85.1633 98.5079 90.729C100.647 93.4496 102.753 96.2066 104.828 99Z" fill="#67C7BF"/>
<path d="M103 164C102.228 163.359 101.729 156.425 101.209 154.91C100.581 153.052 100.102 151.053 99.1173 149.346C98.7385 148.688 98.2219 147.528 97.5131 147.167C97.2663 147.039 94.6778 146.712 95.2173 147.365C93.7136 145.576 91.6072 144.015 89.7103 142.639C81.655 136.792 68.0008 137.774 62.9587 147.161C61.2369 150.366 60.4792 153.996 60 157.608C60.3587 154.913 62.3733 152.609 64.2357 150.803C65.5931 149.489 67.4383 147.63 69.4012 147.712C69.4529 148.521 69.9235 149.55 70.8734 149.588C72.733 149.649 73.2381 147.633 75.1062 148.868C76.7276 149.94 76.3718 152.114 79.2071 152.428C81.9965 152.737 84.4816 150.972 87.2653 151.301C90.2125 151.636 92.3992 153.34 94.1526 155.671C96.1127 158.287 103 163.997 103 164Z" fill="white"/>
<path d="M113 159C111.227 157.787 111.258 151.798 111.23 149.933C111.145 144.323 114.671 131.874 107.59 128.893C106.937 128.61 106.203 128.462 105.689 127.972C105.108 127.406 104.952 126.556 104.736 125.779C99.6947 107.552 80.8743 101.294 66.4881 92.4593C65.4724 91.8388 62.6326 90.8727 62 90C69.2768 100.03 70.3009 114.194 82.1935 120.504C85.334 122.17 86.3865 127.074 87.8192 130.194C89.1185 133.027 90.3526 136.597 92.5001 138.92C98.3641 145.278 105.649 154.016 113 159Z" fill="#67C7BF"/>
<path d="M113.511 201C113.491 200.718 111.681 172.839 114.995 140.12C116.94 120.886 120.251 103.762 124.835 89.2224C130.578 70.9967 138.349 56.7908 147.939 47L149 48.0452C127.625 69.8753 119.514 110.245 116.476 140.269C113.173 172.868 114.975 200.621 114.995 200.898L113.511 201Z" fill="#67C7BF"/>
<path d="M130.246 192H97.7755L92.2916 217.869C91.4575 221.809 92.434 225.918 94.9487 229.05C97.4634 232.181 101.247 234.001 105.245 234H122.758C126.755 234.001 130.538 232.182 133.053 229.05C135.567 225.918 136.543 221.809 135.708 217.869L130.246 192Z" fill="#93A1D2"/>
<path d="M124 152C124.57 150.487 124.627 149.051 124.59 147.442C124.346 137.998 127.524 128.784 133.538 121.497C137.846 116.327 143.032 111.997 147.535 107C148.751 105.647 151.327 103.712 152 102C152 102 147.632 113.142 146.603 119.062C146.671 118.677 147.273 118.845 147.486 118.953C149.014 119.723 146.802 124.158 146.258 125.076C143.525 129.694 139.288 133.907 135.187 137.326C135.891 136.756 137.812 135.069 138.789 135.217C140.713 135.502 138.949 139.089 138.339 140.317C137.353 142.311 135.774 143.983 134.042 145.354C130.91 147.815 127.428 149.983 124 152Z" fill="#67C7BF"/>
<path d="M114.556 138C113.612 120.217 104.858 99.2563 102.196 93.2563C102.035 92.8958 101.793 92.3493 102.332 92L103.267 92.1577L102.723 92.631L103.387 92.3493L103.509 92.631C106.199 98.693 115.043 119.87 116 137.915L114.556 138Z" fill="#67C7BF"/>
<path d="M131.963 171.283C132.435 170.733 133.33 169.791 134.167 170.042C135.523 170.454 134.842 172.4 134.732 173.306C134.623 174.627 134.586 175.953 134.622 177.279C134.605 178.689 134.587 180.114 134.173 181.463C133.759 182.811 132.887 184.092 131.581 184.69C130.275 185.288 128.511 185.023 127.683 183.869C126.131 181.702 127.553 178.362 128.702 176.328C129.684 174.59 130.649 172.809 131.963 171.283Z" fill="#0071B8"/>
<path d="M127.764 166.872C128.293 166.268 128.946 165.775 129.68 165.423C130.808 164.884 133.991 164.873 134 165.316C134.045 167.04 130.39 170.363 128.651 170.868C127.4 171.227 126.305 170.839 126.037 169.903C125.988 169.733 125.988 169.554 126.037 169.384C126.116 169.177 126.226 168.982 126.362 168.805C126.784 168.131 127.253 167.485 127.764 166.872Z" fill="#0071B8"/>
<path d="M138.022 179.904C138.095 180.485 138.369 181.028 138.803 181.453C139.226 181.9 139.881 182.093 140.506 181.957C141.142 181.775 141.54 181.184 141.755 180.596C142.423 178.639 141.695 176.506 139.934 175.257C139.669 175.074 139.315 174.914 139.021 175.052C138.834 175.162 138.697 175.33 138.635 175.526C138.078 176.779 138.081 178.105 138.004 179.433C137.995 179.59 138.001 179.748 138.022 179.904Z" fill="#0071B8"/>
<path d="M208.315 181.049L206.335 206.31L217 233H213.912L197.508 206.966L194.734 185.954H193.549L188.961 206.256L188.486 233H185.395L181 206.396L181.591 176.125L203.894 167L206.417 171.759C207.913 174.611 208.571 177.834 208.315 181.049Z" fill="#93737D"/>
<path d="M178.823 184L212 173.092L194.419 131.975C193.08 128.85 189.55 127.265 186.301 128.331L172.508 132.867C169.259 133.936 167.38 137.3 168.187 140.601L172.017 156.256L172.752 159.21L178.823 184Z" fill="#FBE098"/>
<path d="M181.842 120.257L178.708 120.466L177.544 102.986L179.503 102.855C182.068 102.684 184.285 104.625 184.456 107.19L185.08 116.554C185.207 118.47 183.758 120.128 181.842 120.257Z" fill="#886239"/>
<path d="M174 122.16L177.863 121L184 129.05L174.168 132L174 122.16Z" fill="#F2C8BF"/>
<path d="M177.797 125.522L171.072 125.992C167.687 126.229 164.751 123.678 164.514 120.293L163.628 107.635L179.911 106.495L180.985 121.852C181.116 123.746 179.69 125.387 177.797 125.522Z" fill="#F2C8BF"/>
<path d="M180.077 114.974C180.338 115.759 181.187 116.184 181.973 115.923C182.759 115.662 183.184 114.814 182.923 114.028C182.663 113.242 181.814 112.816 181.028 113.076C180.65 113.202 180.338 113.472 180.159 113.828C179.981 114.184 179.951 114.596 180.077 114.974Z" fill="#F2C8BF"/>
<path d="M208 236H210.999L214 235.189V233L210.999 234.217L208 234.81V236Z" fill="#42210B"/>
<path d="M214.874 236H217V233H214V235.189L214.874 236Z" fill="#42210B"/>
<path d="M180 236H183L186 235.189V233L183 234.217L180 234.81V236Z" fill="#42210B"/>
<path d="M185.873 236H188V233H185V235.189L185.873 236Z" fill="#42210B"/>
<path d="M155.151 170L151.906 170.505C150.766 170.683 149.747 171.366 149.093 172.389L147.046 175.597C146.981 175.692 146.985 175.824 147.057 175.913C147.13 176.003 147.25 176.026 147.346 175.969L151.351 174.105C151.766 173.91 152.248 173.984 152.596 174.295C153.38 174.996 154.435 175.231 155.412 174.923L157 174.425L155.151 170Z" fill="#F2C8BF"/>
<path d="M179.131 110.121L166.628 110.953C165.92 111 165.223 110.764 164.69 110.297C164.156 109.83 163.83 109.171 163.783 108.463L163.659 106.611C163.561 105.138 164.676 103.864 166.149 103.766L178.652 102.933L179.131 110.121Z" fill="#886239"/>
<path d="M179.406 114.996C180.346 114.938 181.057 114.187 180.996 113.317L180.407 105L177 105.21L177.589 113.526C177.618 113.945 177.827 114.335 178.168 114.611C178.509 114.887 178.954 115.025 179.406 114.996Z" fill="#886239"/>
<path d="M175.696 159.445L181 135L167.158 137.123L165.749 157.036L154 170.121L155.716 174L173.394 162.748C174.57 162.002 175.399 160.812 175.696 159.445Z" fill="#FBE098"/>
<path d="M139 168.317L165.676 192L176 188.93L170.198 169.615L162.957 171.758C159.189 172.874 155.156 172.727 151.48 171.339L139.995 167L139 168.317Z" fill="#EA7624"/>
<path fill-rule="evenodd" clip-rule="evenodd" d="M170 169.583L174.199 168.321C177.379 167.365 180.806 168.594 182.675 171.36C184.545 174.126 184.426 177.794 182.381 180.43L175.739 189L170 169.583ZM181.161 172.402C179.742 170.301 177.138 169.369 174.724 170.097V170.088L172.286 170.823L176.487 185.031L180.936 179.289C182.489 177.287 182.58 174.502 181.161 172.402Z" fill="#EA7624"/>
<path d="M183.202 167L181.059 169.322C180.318 170.128 179.938 171.21 180.008 172.311L180.24 175.793C180.248 175.892 180.319 175.974 180.415 175.995C180.511 176.016 180.609 175.97 180.656 175.883L182.617 172.168C182.82 171.781 183.221 171.542 183.653 171.553C184.62 171.574 185.534 171.105 186.093 170.302L187 168.997L183.202 167Z" fill="#F2C8BF"/>
<path d="M205.468 147.614C205.468 147.614 195.345 132.239 193.874 130.344C192.768 128.914 191.104 127.582 188.367 128.123C186.831 128.429 185.503 129.381 184.722 130.737C183.942 132.092 183.786 133.718 184.294 135.197L196.227 151.895L184.024 167.06L187.749 169L205.715 151.587C206.167 150.283 206.078 148.852 205.468 147.614Z" fill="#FBE098"/>
</svg>
