<?xml version="1.0" encoding="UTF-8"?>
<svg width="45px" height="36px" viewBox="0 0 45 36" version="1.1" xmlns="http://www.w3.org/2000/svg" xmlns:xlink="http://www.w3.org/1999/xlink">
    <title>Group 5</title>
    <defs>
        <polygon id="path-1" points="0 0.395526316 44.7098437 0.395526316 44.7098437 36 0 36"></polygon>
    </defs>
    <g id="Yulii---Design" stroke="none" stroke-width="1" fill="none" fill-rule="evenodd">
        <g id="03.-Accueil" transform="translate(-262.000000, -317.000000)">
            <g id="Group" transform="translate(35.000000, 239.000000)">
                <g id="Group-5" transform="translate(227.000000, 78.000000)">
                    <path d="M18.087396,23.9229588 L17.5068644,24.6205826 L12,31.2145172 L14.9082718,33.5197286 L20.9961356,26.2281703 L18.087396,23.9229588 Z M14.439075,18.4376582 L21.4629935,18.4376582 L21.4629935,7 L14.439075,7 L14.439075,18.4376582 Z M24.6973173,18.4376582 L31.3563569,18.4376582 L31.3563569,7 L24.6973173,7 L24.6973173,18.4376582 Z M35,31.1967462 L31.4611426,34 L24.9854781,26.2441185 L28.5248032,23.4404091 L35,31.1967462 Z" id="Fill-1" fill="#F9CA78"></path>
                    <g id="Group-4">
                        <mask id="mask-2" fill="white">
                            <use xlink:href="#path-1"></use>
                        </mask>
                        <g id="Clip-3"></g>
                        <path d="M23.3427656,18.6823895 L21.0379219,18.6823895 L21.0379219,4.46475789 L23.3408906,4.46475789 L23.3408906,7.74075789 L23.3427656,7.74075789 L23.3427656,18.6823895 Z M24.2802656,18.6823895 L30.0126094,18.6823895 L30.0126094,7.74123158 L24.2802656,7.74123158 L24.2802656,18.6823895 Z M20.1004219,6.79386316 L13.1643281,6.79386316 L13.1643281,4.46475789 L18.2141719,4.46475789 L18.2333906,4.48749474 L18.2572969,4.46475789 L20.1004219,4.46475789 L20.1004219,6.79386316 Z M13.9977656,18.6823895 L20.1004219,18.6823895 L20.1004219,7.74123158 L13.9977656,7.74123158 L13.9977656,18.6823895 Z M18.3829219,2.06223158 C18.4105781,1.88175789 18.4860469,1.63544211 18.6922969,1.48196842 C18.8971406,1.32944211 19.1512031,1.32944211 19.3297969,1.35691579 C19.8576094,1.43744211 20.4501094,1.85049474 20.8752656,2.43407368 C21.1251094,2.77702105 21.2910469,3.15407368 21.3777656,3.51738947 L18.7194844,3.51738947 C18.4466719,3.02191579 18.3177656,2.49044211 18.3829219,2.06223158 L18.3829219,2.06223158 Z M23.0258906,2.4336 C23.4501094,1.85096842 24.0416719,1.43838947 24.5699531,1.35738947 C24.7480781,1.32896842 25.0049531,1.32944211 25.2102656,1.48291579 C25.4160469,1.63544211 25.4915156,1.88175789 25.5187031,2.06175789 C25.5829219,2.48996842 25.4549531,3.02144211 25.1816719,3.51738947 L22.5219844,3.51738947 C22.6091719,3.15454737 22.7755781,2.77749474 23.0258906,2.4336 L23.0258906,2.4336 Z M24.2802656,6.79338947 L24.2802656,4.46523158 L25.6462031,4.46523158 L25.6682344,4.48749474 L25.6869844,4.46523158 L30.8465156,4.46523158 L30.8465156,6.79338947 L24.2802656,6.79338947 Z M31.7844844,3.51786316 L31.7840156,3.51786316 L31.7840156,3.51738947 L26.2208906,3.51738947 C26.4374531,2.9736 26.5199531,2.41512632 26.4454219,1.91870526 C26.3680781,1.40665263 26.1327656,0.991705263 25.7662031,0.719810526 C25.3996406,0.446021053 24.9365156,0.343705263 24.4293281,0.420442105 C23.6521406,0.539336842 22.8449531,1.08265263 22.2707344,1.87275789 C22.1507344,2.0376 22.0438594,2.2086 21.9505781,2.38291579 C21.8577656,2.2086 21.7508906,2.03712632 21.6304219,1.87275789 C21.0538594,1.08170526 20.2466719,0.538389474 19.4699531,0.419968421 C18.9641719,0.343231579 18.5019844,0.446494737 18.1368281,0.718863158 C17.7688594,0.991705263 17.5335469,1.40665263 17.4562031,1.91870526 C17.3812031,2.41512632 17.4641719,2.9736 17.6802656,3.51738947 L12.2268281,3.51738947 L12.2268281,7.74123158 L13.0602656,7.74123158 L13.0602656,19.6297579 L30.9501094,19.6297579 L30.9501094,7.74123158 L31.7840156,7.74123158 L31.7840156,7.74075789 L31.7844844,7.74075789 L31.7844844,3.51786316 Z M14.0535469,34.6687579 L11.2363594,32.3524421 L16.5707344,25.7256 L17.1332344,25.0250211 L19.9504219,27.3408632 L14.0535469,34.6687579 Z M5.18901563,28.3687579 C4.47698438,28.0561263 3.94214063,27.4166526 3.75979688,26.6540211 L0.966046875,14.9729684 C0.895265625,14.6797579 0.956203125,14.3713895 1.12542188,14.1250737 C1.29885938,13.8834947 1.56604688,13.7224421 1.86135938,13.6944947 C2.14682813,13.6608632 2.42854688,13.7224421 2.66760938,13.8508105 C2.83120313,13.9403368 2.98120313,14.0634947 3.09839063,14.2150737 C3.20151563,14.3382316 3.28120313,14.4803368 3.33276563,14.6366526 C3.33745313,14.6461263 3.34260938,14.6608105 3.34729688,14.6698105 L3.63792188,15.5840211 L4.27026563,17.9524421 C3.58635938,18.5966526 3.18792188,19.7287579 4.13432813,21.0219158 L5.52182813,22.6566 L7.72964063,25.2566526 L7.73432813,25.2618632 L8.37229688,26.0102842 L9.70307813,27.1040211 L9.99839063,26.7345474 L10.2937031,26.3698105 L9.02339063,25.3234421 L8.99573438,25.2997579 L8.65307813,24.8919158 L8.40979688,24.6081789 L8.19839063,24.3566526 L8.06714063,24.2003368 L7.57073438,23.6177053 L6.37542188,22.2018632 L5.66760938,21.3677053 L4.95464063,20.5292842 L4.87073438,20.4298105 C4.46714063,19.8803368 4.45307813,19.4445474 4.58010938,19.1229158 C4.65979688,18.9092842 4.79995313,18.7487053 4.93589063,18.6250737 C4.95932813,18.6013895 4.98792188,18.5777053 5.01557813,18.5587579 C5.12385938,18.4739684 5.23635938,18.4071789 5.34839063,18.3555474 C5.56401563,18.2560737 5.78479688,18.2134421 5.96292188,18.2224421 C6.12229688,18.2224421 6.24370313,18.2698105 6.30932813,18.3508105 L6.58120313,18.6629684 L7.32698438,19.5160737 L10.5608906,23.2150737 L10.8749531,23.5750737 L10.9785469,23.6934947 L11.2926094,23.8687579 L15.1312031,26.0050737 L11.1566719,30.9460737 L5.18901563,28.3687579 Z M4.27026563,14.3524421 C4.39729688,14.3145474 4.53792188,14.3292316 4.65979688,14.3950737 C4.78120313,14.4613895 4.87073438,14.5703368 4.91292188,14.7034421 L5.68120313,17.2798105 C5.48901563,17.3034947 5.28745313,17.3556 5.10042188,17.4313895 L4.53792188,15.3144947 L4.23745313,14.3761263 C4.23745313,14.3713895 4.23276563,14.3671263 4.23276563,14.3619158 L4.27026563,14.3524421 Z M16.9972969,23.6887579 L15.7358906,25.2566526 L11.5691719,22.9450737 L7.02651563,17.7397579 C6.93792188,17.6260737 6.82964063,17.5356 6.71245313,17.4650211 L5.80823438,14.4287053 C5.69573438,14.0540211 5.44682813,13.7461263 5.10510938,13.5613895 C4.76245313,13.3719158 4.36870313,13.3340211 3.99839063,13.4477053 L3.74526563,13.5234947 C3.25776563,12.9740211 2.52229688,12.6713368 1.76292188,12.7513895 C1.20042188,12.8087053 0.689484375,13.1113895 0.361359375,13.5803368 C0.032765625,14.0497579 -0.079734375,14.6366526 0.056203125,15.1960737 L2.84995313,26.8771263 C3.09839063,27.9287053 3.83479688,28.8144947 4.82339063,29.2356 L10.5468281,31.7134421 L9.91870313,32.4898105 L14.1894844,36.0002842 L21.2722969,27.2034947 L16.9972969,23.6887579 Z M43.7437031,14.9729684 L40.9504219,26.6540211 C40.7676094,27.4166526 40.2327656,28.0561263 39.5207344,28.3687579 L33.5512031,30.9484421 L29.5785469,26.0050737 L33.4171406,23.8687579 L33.7312031,23.6934947 L33.8347969,23.5750737 L34.1488594,23.2150737 L37.3827656,19.5160737 L38.1285469,18.6629684 L38.4004219,18.3508105 C38.4660469,18.2698105 38.5874531,18.2224421 38.7468281,18.2224421 C38.9249531,18.2134421 39.1457344,18.2560737 39.3613594,18.3555474 C39.4733906,18.4071789 39.5858906,18.4739684 39.6941719,18.5587579 C39.7218281,18.5777053 39.7504219,18.6013895 39.7738594,18.6250737 C39.9097969,18.7487053 40.0504219,18.9092842 40.1301094,19.1229158 C40.2566719,19.4445474 40.2426094,19.8803368 39.8390156,20.4298105 L39.7551094,20.5292842 L39.0421406,21.3677053 L38.3343281,22.2018632 L37.1394844,23.6177053 L36.6426094,24.2003368 L36.5113594,24.3566526 L36.3004219,24.6081789 L36.0566719,24.8919158 L35.7144844,25.2997579 L35.6863594,25.3234421 L34.4160469,26.3698105 L34.7113594,26.7345474 L35.0066719,27.1040211 L36.3379219,26.0102842 L36.9754219,25.2618632 L36.9801094,25.2566526 L39.1879219,22.6566 L40.5754219,21.0219158 C41.5218281,19.7287579 41.1238594,18.5966526 40.4394844,17.9524421 L41.0718281,15.5840211 L41.3624531,14.6698105 C41.3671406,14.6608105 41.3722969,14.6461263 41.3769844,14.6366526 C41.4285469,14.4803368 41.5082344,14.3382316 41.6113594,14.2150737 C41.7285469,14.0634947 41.8785469,13.9403368 42.0426094,13.8508105 C42.2812031,13.7224421 42.5629219,13.6608632 42.8483906,13.6944947 C43.1437031,13.7224421 43.4113594,13.8834947 43.5847969,14.1250737 C43.7535469,14.3713895 43.8144844,14.6797579 43.7437031,14.9729684 L43.7437031,14.9729684 Z M30.6566719,34.6687579 L24.7593281,27.3408632 L27.5765156,25.0250211 L28.1376094,25.7241789 L33.4733906,32.3524421 L30.6566719,34.6687579 Z M39.7972969,14.7034421 C39.8390156,14.5703368 39.9285469,14.4613895 40.0504219,14.3950737 C40.1718281,14.3292316 40.3124531,14.3145474 40.4394844,14.3524421 L40.4769844,14.3619158 C40.4769844,14.3671263 40.4722969,14.3713895 40.4722969,14.3761263 L40.1718281,15.3144947 L39.6093281,17.4313895 C39.4222969,17.3556 39.2207344,17.3034947 39.0285469,17.2798105 L39.7972969,14.7034421 Z M44.3488594,13.5803368 C44.0202656,13.1113895 43.5093281,12.8087053 42.9468281,12.7513895 C42.1874531,12.6713368 41.4519844,12.9740211 40.9644844,13.5234947 L40.7113594,13.4477053 C40.3410469,13.3340211 39.9472969,13.3719158 39.6046406,13.5613895 C39.2629219,13.7461263 39.0144844,14.0540211 38.9015156,14.4287053 L37.9972969,17.4650211 C37.8801094,17.5356 37.7718281,17.6260737 37.6832344,17.7397579 L33.1405781,22.9450737 L28.9738594,25.2566526 L27.7124531,23.6887579 L23.4374531,27.2034947 L30.5207344,36.0002842 L34.7910469,32.4898105 L34.1652656,31.7115474 L39.8863594,29.2356 C40.8749531,28.8144947 41.6113594,27.9287053 41.8597969,26.8771263 L44.6535469,15.1960737 C44.7894844,14.6366526 44.6769844,14.0497579 44.3488594,13.5803368 L44.3488594,13.5803368 Z" id="Fill-2" fill="#4B5161" mask="url(#mask-2)"></path>
                    </g>
                </g>
            </g>
        </g>
    </g>
</svg>