<svg width="326" height="299" viewBox="0 0 326 299" fill="none" xmlns="http://www.w3.org/2000/svg">
<g style="mix-blend-mode:multiply">
<path d="M44.1582 217.103V213.526C44.1582 212.35 45.1147 211.396 46.2945 211.396H83.4546V219.232H46.2843C45.1085 219.227 44.1582 218.275 44.1582 217.103Z" fill="#CCE3FF"/>
<path d="M67.9419 216.35V214.278C67.9419 213.952 68.0721 213.638 68.3039 213.407C68.5356 213.176 68.8499 213.047 69.1776 213.047H83.3971C83.4251 213.047 83.4479 213.069 83.4479 213.097V217.538C83.4479 217.566 83.4251 217.589 83.3971 217.589H69.1776C68.8487 217.589 68.5334 217.458 68.3014 217.226C68.0695 216.993 67.9401 216.678 67.9419 216.35Z" fill="#DCEEFF"/>
<path d="M39.2117 227.082V219.243H79.6152C80.795 219.243 81.7515 220.196 81.7515 221.372V224.949C81.7515 226.125 80.795 227.079 79.6152 227.079H39.2117V227.082Z" fill="#CCE3FF"/>
<path d="M39.2117 225.401V220.906H56.1159C56.7927 220.906 57.3414 221.453 57.3414 222.128V224.18C57.3414 224.854 56.7927 225.401 56.1159 225.401H39.2117Z" fill="#DCEEFF"/>
<path d="M172.356 163.334L165.954 227.072H98.5203L104.922 163.334H172.356Z" fill="#DCEEFF" stroke="#DCEEFF" stroke-width="5"/>
<path d="M169.97 163.334L163.568 227.072H94.8809L101.283 163.334H169.97Z" fill="white" stroke="#DCEEFF" stroke-width="5"/>
<path d="M155.611 175.52L151.657 214.883H109.239L113.193 175.52H155.611Z" fill="#DCEEFF"/>
<rect x="5.94507" y="232.92" width="274.885" height="45.3626" fill="#CCE3FF"/>
<rect x="13.0481" y="237.77" width="44.3782" height="35.657" fill="#DCEEFF"/>
<rect x="66.7705" y="237.77" width="44.3782" height="15.1524" fill="#DCEEFF"/>
<rect x="66.7705" y="258.278" width="44.3782" height="15.1524" fill="#DCEEFF"/>
<rect x="227.938" y="237.77" width="44.3782" height="15.1524" fill="#DCEEFF"/>
<rect x="227.938" y="258.278" width="44.3782" height="15.1524" fill="#DCEEFF"/>
<rect x="120.493" y="237.77" width="44.3782" height="35.657" fill="#DCEEFF"/>
<rect x="174.215" y="237.77" width="44.3782" height="35.657" fill="#DCEEFF"/>
<rect x="280.831" y="232.92" width="37.0958" height="45.3626" fill="#B6D4FF"/>
<rect y="227.072" width="285.364" height="5.84834" fill="#DCEEFF"/>
<rect x="285.364" y="227.072" width="38.511" height="5.84834" fill="#B6D4FF"/>
<path d="M282.53 278.283V298.791" stroke="#CCE3FF" stroke-width="10"/>
<path d="M316.257 278.283V298.791" stroke="#CCE3FF" stroke-width="10"/>
<path d="M7.24862 278.283V298.791" stroke="#CCE3FF" stroke-width="10"/>
<path d="M39.4522 278.283V298.791" stroke="#CCE3FF" stroke-width="10"/>
<path d="M54.0441 206.618L56.5562 182.236H64.4074L66.9195 206.631C67.045 207.852 66.6459 209.068 65.8213 209.979C64.9966 210.89 63.8235 211.41 62.5927 211.41H58.3709C57.1375 211.41 55.962 210.888 55.1368 209.974C54.3117 209.061 53.9145 207.841 54.0441 206.618Z" fill="#DCEEFF"/>
<path d="M20.5674 237.77H49.9068V239.201C49.9068 240.132 49.1489 240.888 48.214 240.888H22.2771C21.3422 240.888 20.5843 240.132 20.5843 239.201V237.77L20.5674 237.77Z" fill="#B6D4FF"/>
<path d="M74.2898 237.77H103.629V239.201C103.629 240.132 102.871 240.888 101.936 240.888H75.9995C75.0646 240.888 74.3067 240.132 74.3067 239.201V237.77L74.2898 237.77Z" fill="#B6D4FF"/>
<path d="M128.72 237.77H158.059V239.201C158.059 240.132 157.301 240.888 156.366 240.888H130.429C129.495 240.888 128.737 240.132 128.737 239.201V237.77L128.72 237.77Z" fill="#B6D4FF"/>
<path d="M181.735 237.77H211.074V239.201C211.074 240.132 210.316 240.888 209.381 240.888H183.444C182.509 240.888 181.752 240.132 181.752 239.201V237.77L181.735 237.77Z" fill="#B6D4FF"/>
<path d="M74.2898 258.278H103.629V259.708C103.629 260.64 102.871 261.396 101.936 261.396H75.9995C75.0646 261.396 74.3067 260.64 74.3067 259.708V258.278H74.2898Z" fill="#B6D4FF"/>
<path d="M235.457 237.77H264.796V239.201C264.796 240.132 264.039 240.888 263.104 240.888H237.167C236.232 240.888 235.474 240.132 235.474 239.201V237.77L235.457 237.77Z" fill="#B6D4FF"/>
<path d="M235.457 258.278H264.796V259.708C264.796 260.64 264.039 261.396 263.104 261.396H237.167C236.232 261.396 235.474 260.64 235.474 259.708V258.278H235.457Z" fill="#B6D4FF"/>
</g>
<g style="mix-blend-mode:multiply">
<rect x="322.756" y="111.516" width="34.821" height="29.243" transform="rotate(-180 322.756 111.516)" fill="#DCEEFF" stroke="#DCEEFF" stroke-width="5"/>
<rect x="320.706" y="111.557" width="34.821" height="29.243" transform="rotate(-180 320.706 111.557)" fill="white" stroke="#DCEEFF" stroke-width="5"/>
<rect x="291.816" y="88.2778" width="22.463" height="17.2368" fill="#DCEEFF"/>
<rect x="115.938" y="120.848" width="54.2325" height="45.9659" transform="rotate(-180 115.938 120.848)" fill="#DCEEFF" stroke="#DCEEFF" stroke-width="5"/>
<rect x="112.748" y="120.909" width="54.2325" height="45.9659" transform="rotate(-180 112.748 120.909)" fill="white" stroke="#DCEEFF" stroke-width="5"/>
<rect x="67.7542" y="84.3152" width="34.9834" height="27.096" fill="#DCEEFF"/>
<rect x="155.198" y="95.3105" width="21.1605" height="24.6515" transform="rotate(-180 155.198 95.3105)" fill="#DCEEFF" stroke="#DCEEFF" stroke-width="5"/>
<rect x="154.125" y="95.3105" width="21.553" height="24.6515" transform="rotate(-180 154.125 95.3105)" fill="white" stroke="#DCEEFF" stroke-width="5"/>
<rect x="137.674" y="77.0255" width="10.3587" height="11.8676" fill="#CCE3FF"/>
<rect x="293.984" y="67.7816" width="34.821" height="54.7736" transform="rotate(-180 293.984 67.7816)" fill="#DCEEFF" stroke="#DCEEFF" stroke-width="5"/>
<rect x="291.433" y="67.7816" width="65.2577" height="54.7736" transform="rotate(-180 291.433 67.7816)" fill="white" stroke="#DCEEFF" stroke-width="5"/>
<rect x="285.425" y="61.8208" width="53.2447" height="42.8553" transform="rotate(-180 285.425 61.8208)" fill="white" stroke="#DCEEFF" stroke-width="5"/>
<path d="M85.136 42.6636H114.433L118.387 3.16907H89.0941L85.136 42.6636Z" fill="#DCEEFF" stroke="#DCEEFF" stroke-width="5"/>
<path d="M83.5562 42.6636H113.397L117.352 3.16907H87.5109L83.5562 42.6636Z" fill="white" stroke="#DCEEFF" stroke-width="5"/>
<path d="M89.2734 37.4499H108.726L111.635 8.38269H92.1828L89.2734 37.4499Z" fill="#DCEEFF"/>
<path d="M75.9919 13.7992L73.0994 42.6669H35.1255L38.0146 13.7992H75.9919Z" fill="#DCEEFF" stroke="#DCEEFF" stroke-width="5"/>
<path d="M75.1393 13.7992L72.2469 42.6669H33.5659L36.4617 13.7992H75.1393Z" fill="white" stroke="#DCEEFF" stroke-width="5"/>
<path d="M66.9863 19.4625L65.2271 37.0036H41.7222L43.4813 19.4625H66.9863Z" fill="#CCE3FF"/>
<rect x="5.18945" y="42.667" width="109.534" height="4.90258" fill="#DCEEFF"/>
<rect x="114.724" y="42.6636" width="18.0177" height="4.90258" fill="#CCE3FF"/>
<path d="M29.8413 47.5662L35.7142 58.2808V47.5662H29.8413Z" fill="#B6D4FF"/>
<path d="M26.5901 47.5662L32.4629 58.2808H35.714L29.8411 47.5662H26.5901Z" fill="#CCE3FF"/>
<path d="M96.8376 47.5662L102.71 58.2808V47.5662H96.8376Z" fill="#B6D4FF"/>
<path d="M93.5867 47.5662L99.4629 58.2808H102.711L96.8377 47.5662H93.5867Z" fill="#CCE3FF"/>
<path d="M178.726 59.4506C189.591 59.4506 198.398 50.6481 198.398 39.7896C198.398 28.9311 189.591 20.1285 178.726 20.1285C167.862 20.1285 159.054 28.9311 159.054 39.7896C159.054 50.6481 167.862 59.4506 178.726 59.4506Z" fill="#CCE3FF"/>
<path d="M174.866 59.4506C185.731 59.4506 194.538 50.6481 194.538 39.7896C194.538 28.9311 185.731 20.1285 174.866 20.1285C164.002 20.1285 155.194 28.9311 155.194 39.7896C155.194 50.6481 164.002 59.4506 174.866 59.4506Z" fill="#DCEEFF"/>
<path d="M189.775 39.7862C189.774 47.3773 184.065 53.7551 176.517 54.5988C175.971 54.6571 175.422 54.6864 174.873 54.6867C169.494 54.7677 164.488 51.9458 161.774 47.3028C159.061 42.6599 159.061 36.916 161.774 32.273C164.488 27.63 169.494 24.8082 174.873 24.8891C175.422 24.8877 175.971 24.9171 176.517 24.9771C184.065 25.8176 189.775 32.1953 189.775 39.7862Z" fill="#CCE3FF"/>
<path d="M189.775 39.7862C189.774 47.3773 184.065 53.7551 176.517 54.5988C168.961 53.7668 163.241 47.3858 163.241 39.7879C163.241 32.1901 168.961 25.809 176.517 24.9771C184.065 25.8176 189.775 32.1953 189.775 39.7862Z" fill="#ECF6FF"/>
<path d="M175.516 31.5026L180.343 42.0313" stroke="#CCE3FF" stroke-width="8"/>
<path d="M180.803 37.619L170.225 49.1113" stroke="#CCE3FF" stroke-width="8"/>
</g>
<g style="mix-blend-mode:multiply">
<path fill-rule="evenodd" clip-rule="evenodd" d="M259.998 25L264.944 35.204L276 36.8411L268.001 44.7851L269.889 56L259.998 50.7074L250.111 56L251.999 44.7851L244 36.8411L255.056 35.204L259.998 25V25Z" stroke="#CCE3FF" stroke-width="7"/>
</g>
</svg>
